<svg xmlns="http://www.w3.org/2000/svg" style="display: none;">
  <symbol id="sun" viewBox="0 0 64 64">
    <line x1="32" y1="8" x2="32" y2="16"/><line x1="32" y1="56" x2="32" y2="48"/><line x1="56" y1="32" x2="48" y2="32"/><line x1="8" y1="32" x2="16" y2="32"/><line x1="48.97" y1="15.03" x2="43.31" y2="20.69"/><line x1="15.03" y1="48.97" x2="20.69" y2="43.31"/><line x1="48.97" y1="48.97" x2="43.31" y2="43.31"/><line x1="15.03" y1="15.03" x2="20.69" y2="20.69"/><circle cx="32" cy="32" r="8"/>
  </symbol>

  <symbol id="moon" viewBox="0 0 64 64">
    <path d="M46 44a26 26 0 0 1-24.94-33.36 24 24 0 1 0 32.3 32.3A26.24 26.24 0 0 1 46 44z"/>
  </symbol>

  <symbol id="linkedin" viewBox="0 0 16 16">
    <path d="M13.6333 13.6326H11.2627V9.91927C11.2627 9.03394 11.2467 7.89394 10.0293 7.89394C8.79467 7.89394 8.60533 8.85927 8.60533 9.85394V13.6326H6.23467V5.99661H8.51067V7.04061H8.54267C9.00667 6.24861 9.87067 5.77394 10.788 5.80727C13.1907 5.80727 13.6347 7.38727 13.6347 9.44461L13.6333 13.6313V13.6326ZM3.56 4.95261C3.19583 4.95086 2.84706 4.80551 2.58942 4.54812C2.33179 4.29074 2.1861 3.94211 2.184 3.57794C2.184 2.82327 2.80533 2.20194 3.56 2.20194C4.31467 2.20194 4.93467 2.82327 4.936 3.57794C4.936 4.33261 4.31467 4.95261 3.56 4.95261ZM4.74533 13.6326H2.372V5.99661H4.74533V13.6326ZM14.8133 -0.000727863H1.18C0.870868 -0.00252337 0.573516 0.117752 0.352564 0.33396C0.131612 0.550169 0.00491289 0.84484 0 1.15394V14.8446C0.00491289 15.1537 0.131612 15.4484 0.352564 15.6646C0.573516 15.8808 0.870868 16.0011 1.18 15.9993H14.8147C15.1245 16.0018 15.4228 15.8819 15.6448 15.6657C15.8667 15.4495 15.9944 15.1544 16 14.8446V1.15261C15.9944 0.843042 15.8666 0.548244 15.6446 0.332457C15.4226 0.11667 15.1243 -0.00261202 14.8147 0.000605374L14.8133 -0.000727863Z"/>
  </symbol>

  <symbol id="facebook" viewBox="0 0 16 16">
    <g clip-path="url(#a)">
      <path fill-rule="evenodd" d="M8.546 16H.883A.883.883 0 0 1 0 15.117V.883C0 .395.395 0 .883 0h14.234c.488 0 .883.395.883.883v14.234a.883.883 0 0 1-.883.883H11.04V9.804h2.08l.31-2.415h-2.39V5.848c0-.7.194-1.176 1.196-1.176h1.28v-2.16a16.99 16.99 0 0 0-1.864-.095c-1.844 0-3.106 1.125-3.106 3.191V7.39H6.461v2.415h2.085V16Z" clip-rule="evenodd"/>
    </g>
    <defs>
      <clipPath id="a">
        <path fill="#fff" d="M0 0h16v16H0z"/>
      </clipPath>
    </defs>
  </symbol>

  <symbol id="github" viewBox="0 0 16 16">
    <g clip-path="url(#a)">
      <path fill-rule="evenodd" d="M8 0c4.418 0 8 3.672 8 8.202 0 3.623-2.29 6.697-5.466 7.783-.406.08-.55-.176-.55-.394 0-.27.01-1.154.01-2.251 0-.765-.256-1.264-.544-1.518 1.782-.204 3.654-.897 3.654-4.048 0-.896-.31-1.627-.824-2.201.083-.208.358-1.042-.078-2.171 0 0-.67-.22-2.198.84A7.517 7.517 0 0 0 8 3.967a7.5 7.5 0 0 0-2.002.277c-1.53-1.061-2.201-.841-2.201-.841-.435 1.13-.16 1.963-.078 2.17a3.22 3.22 0 0 0-.824 2.202c0 3.143 1.868 3.847 3.645 4.054-.229.205-.436.566-.508 1.097-.456.21-1.614.572-2.328-.682 0 0-.423-.788-1.226-.845 0 0-.78-.01-.055.498 0 0 .524.252.888 1.2 0 0 .47 1.464 2.695.968.004.686.012 1.332.012 1.527 0 .217-.148.47-.547.395C2.292 14.9 0 11.825 0 8.201 0 3.672 3.582 0 8 0Z" clip-rule="evenodd"/>
    </g>
    <defs>
      <clipPath id="a">
        <path d="M0 0h16v16H0z"/>
      </clipPath>
    </defs>
  </symbol>

  <symbol id="react" viewBox="0 0 16 16">
    <path fill-rule="evenodd" clip-rule="evenodd" d="M12.6402 4.34864C12.9419 3.15988 13.3212 0.955455 11.9842 0.208085C10.6535 -0.536027 8.92181 0.889829 8.00741 1.7457C7.09568 0.898357 5.31536 -0.521403 3.97954 0.228341C2.64934 0.974949 3.05954 3.14283 3.36795 4.33904C2.1271 4.68075 0 5.41675 0 6.92048C0 8.41995 2.12489 9.22069 3.35839 9.56208C3.04884 10.7649 2.65918 12.9018 3.99108 13.6468C5.33189 14.3964 7.10667 13.0104 8.02955 12.1452C8.94981 13.0061 10.6649 14.4011 11.9958 13.6541C13.331 12.9047 12.9833 10.7298 12.6748 9.52667C13.8706 9.18453 16 8.40123 16 6.92048C16 5.4312 13.8615 4.68923 12.6402 4.34864ZM12.4886 8.88907C12.2861 8.26752 12.0128 7.60656 11.6785 6.92379C11.9976 6.25712 12.2603 5.60469 12.4572 4.98715C13.3525 5.23883 15.3165 5.81403 15.3165 6.92048C15.3165 8.03733 13.4318 8.61797 12.4886 8.88907ZM11.6533 13.0805C10.6603 13.6379 9.18512 12.3038 8.50549 11.6698C8.95637 11.1917 9.40693 10.6358 9.84667 10.0186C10.6202 9.95211 11.3509 9.84331 12.0137 9.69477C12.2307 10.5458 12.6508 12.5207 11.6533 13.0805ZM4.3326 13.0726C3.33943 12.5173 3.79338 10.6105 4.0211 9.72443C4.67645 9.86501 5.40192 9.96613 6.17728 10.0271C6.61989 10.631 7.08352 11.1862 7.55072 11.6724C6.97349 12.2138 5.3304 13.6304 4.3326 13.0726ZM0.683461 6.92048C0.683461 5.79947 2.63577 5.22843 3.55149 4.97739C3.75174 5.6088 4.01437 6.26901 4.33132 6.93664C4.01027 7.61419 3.74388 8.28485 3.54179 8.92373C2.66863 8.68139 0.683461 8.04219 0.683461 6.92048ZM4.32197 0.801887C5.3192 0.242218 6.86651 1.60524 7.52848 2.21874C7.06368 2.70269 6.60432 3.25365 6.16549 3.85413C5.41301 3.92176 4.69267 4.03035 4.03045 4.17584C3.782 3.21104 3.32582 1.36095 4.32197 0.801887ZM10.3356 4.57445C10.8461 4.63691 11.3353 4.72 11.7945 4.82165C11.6566 5.25013 11.4848 5.69819 11.2824 6.15749C10.989 5.61776 10.6741 5.08885 10.3356 4.57445ZM8.00763 2.69232C8.32288 3.02345 8.63861 3.39323 8.94923 3.7944C8.3192 3.76549 7.68816 3.76539 7.05813 3.79397C7.36901 3.39652 7.68747 3.0273 8.00763 2.69232ZM4.72347 6.15701C4.52442 5.69931 4.35412 5.24928 4.21505 4.81467C4.67156 4.71563 5.1584 4.63467 5.6656 4.57323C5.32619 5.08651 5.01179 5.6152 4.72347 6.15701ZM5.68016 9.31504C5.15621 9.25835 4.66201 9.18149 4.20563 9.08517C4.3469 8.64293 4.52095 8.1832 4.72425 7.71563C5.01653 8.26309 5.33573 8.79691 5.68016 9.31504ZM8.02656 11.1955C7.70261 10.8565 7.37947 10.4817 7.06389 10.0785C7.69749 10.1026 8.33232 10.1026 8.96587 10.0752C8.65429 10.4858 8.33968 10.8612 8.02656 11.1955ZM11.2889 7.69184C11.5028 8.16448 11.683 8.62171 11.8262 9.05648C11.3623 9.15915 10.8614 9.24181 10.3337 9.3032C10.6747 8.77904 10.9946 8.24192 11.2889 7.69184ZM9.46523 9.38352C8.49605 9.45067 7.52085 9.44992 6.55136 9.38901C6.00048 8.6088 5.51008 7.78827 5.08677 6.93643C5.50805 6.08635 5.99488 5.26741 6.54315 4.48843C7.51333 4.41733 8.48949 4.41712 9.45968 4.48885C10.0033 5.26779 10.4893 6.08459 10.9204 6.92699C10.4945 7.77664 10.0051 8.59723 9.46523 9.38352ZM11.6428 0.782186C12.6403 1.34002 12.1963 3.3212 11.9784 4.18272C11.3146 4.03419 10.5938 3.92368 9.83909 3.85499C9.39941 3.24802 8.94389 2.6961 8.48661 2.21839C9.15707 1.59168 10.655 0.229807 11.6428 0.782186Z"/>
  </symbol>

  <symbol id="vue" viewBox="0 0 16 16">
    <path d="M0 1.77777L8 15.4921L16 1.77777H12.8571L8 10.0635L3.14286 1.77777H0Z" fill="#41B883"/>
    <path d="M3.14282 1.77777L7.99997 10.0635L12.8571 1.77777H9.99997L8.03728 5.21354L5.99997 1.77777H3.14282Z" fill="#35495E"/>
  </symbol>

  <symbol id="next" viewBox="0 0 16 16">
    <g clip-path="url(#clip0_2450_836)">
      <path d="M11.8745 15.0025C11.815 15.034 11.82 15.044 11.877 15.015C11.8955 15.0075 11.911 14.997 11.9245 14.9845C11.9245 14.974 11.9245 14.974 11.8745 15.0025ZM11.9945 14.9375C11.966 14.961 11.966 14.961 12 14.9455C12.018 14.935 12.034 14.925 12.034 14.922C12.034 14.9085 12.026 14.9115 11.9945 14.9375ZM12.0725 14.8905C12.044 14.914 12.044 14.914 12.078 14.8985C12.0965 14.888 12.112 14.877 12.112 14.8745C12.112 14.862 12.104 14.8645 12.0725 14.8905ZM12.1515 14.844C12.123 14.8675 12.123 14.8675 12.156 14.8515C12.1745 14.8415 12.19 14.831 12.19 14.828C12.19 14.8155 12.182 14.818 12.1515 14.844ZM12.258 14.7735C12.2035 14.81 12.1845 14.8335 12.2345 14.8075C12.268 14.787 12.325 14.742 12.315 14.742C12.2935 14.75 12.2755 14.7635 12.2575 14.7735H12.258ZM7.4765 0.00550607C7.44 0.00800607 7.3305 0.0180061 7.2345 0.0260061C4.9605 0.232006 2.833 1.45601 1.4845 3.34151C0.739 4.37501 0.255 5.57551 0.0725 6.83601C0.008 7.27601 0 7.40601 0 8.00251C0 8.59851 0.008 8.72651 0.0725 9.16651C0.508 12.172 2.646 14.695 5.544 15.63C6.0655 15.7965 6.612 15.9115 7.2345 15.982C7.4765 16.008 8.523 16.008 8.765 15.982C9.841 15.862 10.7495 15.5965 11.6485 15.138C11.7865 15.068 11.8125 15.0495 11.794 15.034C11.354 14.4535 10.922 13.8725 10.4895 13.2865L9.211 11.56L7.6095 9.18751C7.0755 8.39351 6.5395 7.60151 5.995 6.81551C5.9895 6.81551 5.9825 7.87001 5.9795 9.15601C5.974 11.4085 5.974 11.5 5.9455 11.552C5.917 11.6145 5.87 11.6665 5.8075 11.6955C5.758 11.719 5.7135 11.724 5.477 11.724H5.2065L5.136 11.68C5.092 11.6515 5.0555 11.612 5.032 11.5655L4.998 11.495L5.0005 8.35951L5.006 5.22401L5.0555 5.16151C5.087 5.12301 5.126 5.09151 5.17 5.06801C5.2355 5.03651 5.2615 5.03151 5.532 5.03151C5.8495 5.03151 5.902 5.04401 5.9855 5.13551C6.6335 6.10151 7.2795 7.07001 7.915 8.04151C8.9545 9.61751 10.3735 11.768 11.071 12.823L12.3395 14.7425L12.402 14.701C13.0115 14.2945 13.566 13.8105 14.0445 13.2585C15.0525 12.1045 15.7065 10.685 15.928 9.17001C15.9925 8.73001 16.0005 8.59951 16.0005 8.00351C16.0005 7.40701 15.9925 7.27951 15.928 6.83951C15.4925 3.83401 13.3545 1.31101 10.4565 0.375506C9.9145 0.204006 9.357 0.0870061 8.7925 0.0270061C8.641 0.0115061 7.607 -0.00699393 7.477 0.00650607L7.4765 0.00550607ZM10.75 4.84401C10.8255 4.88001 10.8825 4.94801 10.9085 5.02601C10.922 5.06801 10.9245 5.93751 10.922 7.89601L10.9165 10.708L10.422 9.94801L9.9245 9.18751V7.14601C9.9245 5.82251 9.93 5.08051 9.937 5.04401C9.9605 4.96051 10.0175 4.89051 10.0935 4.84651C10.1555 4.81501 10.1795 4.81251 10.427 4.81251C10.6585 4.81251 10.698 4.81501 10.75 4.84401Z"/>
    </g>
    <defs>
      <clipPath id="clip0_2450_836">
        <rect width="16" height="16" fill="white"/>
      </clipPath>
    </defs>
  </symbol>

  <symbol id="nuxt" viewBox="0 0 16 16">
    <path d="M13.1485 13.5155L13.164 13.484C13.1795 13.4605 13.19 13.4345 13.2005 13.406V13.4035C13.25 13.2735 13.2605 13.1355 13.237 12.997V13.002C13.211 12.856 13.159 12.7155 13.0805 12.588L13.0855 12.593L9.53846 6.35601L8.99695 5.41051L4.91896 12.593C4.84846 12.718 4.80446 12.8535 4.78096 12.994V13.002C4.75246 13.1635 4.77045 13.3275 4.83545 13.4785L4.83296 13.4735C4.84096 13.497 4.85396 13.518 4.86696 13.541L4.86446 13.5385C4.97146 13.721 5.19796 13.9395 5.69796 13.9395H12.297C12.401 13.9395 12.914 13.9185 13.151 13.515L13.1485 13.5155ZM8.99746 7.30451L12.237 13.0025H5.76046L8.99746 7.30451ZM15.8305 12.594L11.1535 4.35451C11.104 4.26601 10.836 3.82851 10.3645 3.82851C10.1535 3.82851 9.85146 3.91951 9.60396 4.35201L8.99996 5.41201L9.53646 6.36001L10.37 4.88351L14.9975 13.006H13.237C13.2605 13.1415 13.2475 13.2795 13.2005 13.4095V13.4045C13.19 13.433 13.1795 13.462 13.164 13.488V13.4855L13.1485 13.517C12.9115 13.9205 12.401 13.9415 12.302 13.9415H15.0545C15.156 13.9415 15.664 13.9205 15.901 13.517C16.008 13.332 16.0805 13.025 15.8305 12.595V12.594ZM4.86996 13.539C4.85946 13.518 4.84896 13.4975 4.83846 13.4765V13.474C4.77346 13.323 4.75246 13.159 4.78096 12.9975V13.002L0.999455 13.0025L6.61946 3.11451L8.46296 6.35651L8.99946 5.41101L7.38996 2.57751C7.34546 2.49701 7.07496 2.05951 6.60596 2.05951C6.39496 2.05951 6.09046 2.15051 5.84546 2.58551L0.152955 12.5935C0.103455 12.6795 -0.131045 13.1325 0.103455 13.536C0.210455 13.721 0.436955 13.937 0.936955 13.937H5.70246C5.20746 13.937 4.97596 13.7235 4.86896 13.536L4.86996 13.539Z"/>
  </symbol>

  <symbol id="angular" viewBox="0 0 16 16">
    <g clip-path="url(#a)">
      <path fill="#E23237" d="M.477 2.678 7.877.04l7.6 2.59-1.23 9.791-6.37 3.527-6.27-3.48-1.13-9.791Z"/>
      <path fill="#B52E31" d="M15.477 2.63 7.877.042V15.95l6.37-3.522 1.23-9.797Z"/>
      <path fill="#fff" d="m7.889 1.898-4.612 10.26L5 12.13l.926-2.314h4.137l1.013 2.343 1.647.03-4.834-10.29ZM7.9 5.186l1.56 3.257H6.528L7.9 5.186Z"/>
    </g>
    <defs>
      <clipPath id="a">
        <path fill="#fff" d="M0 0h16v16H0z"/>
      </clipPath>
    </defs>
  </symbol>

  <symbol id="vanilla" viewBox="0 0 16 16">
    <g clip-path="url(#clip0_2450_845)">
      <path d="M12.1508 6.07583C12.0736 5.16974 11.544 4.38965 10.7902 3.96215C10.8339 3.76821 10.856 3.56921 10.856 3.36821C10.856 2.99321 10.7804 2.63043 10.6311 2.29006L10.1827 2.48665C10.3046 2.76468 10.3664 3.06124 10.3664 3.36821C10.3664 3.49921 10.3547 3.62893 10.3321 3.7564C10.0607 3.66396 9.77053 3.61302 9.46878 3.61302C8.07551 3.61302 6.92138 4.68337 6.78938 6.04474H4.44851C4.36886 5.81486 4.32795 5.57415 4.32795 5.32665C4.32795 4.11177 5.31629 3.12343 6.53117 3.12343C7.07151 3.12343 7.59107 3.32099 7.99422 3.67974L8.31969 3.31393C7.82676 2.87534 7.1916 2.63381 6.53117 2.63381C6.37451 2.63381 6.22126 2.64799 6.07189 2.67378C6.19538 2.30234 6.41723 1.96712 6.71704 1.70603C7.1177 1.35709 7.63126 1.165 8.16319 1.165C8.60879 1.165 9.03816 1.2974 9.40488 1.548C9.51719 1.62465 9.62178 1.71168 9.71772 1.80747L9.02022 2.80349L9.42129 3.08434L11.3843 0.280874L10.9833 0L10.002 1.40147C9.90178 1.30769 9.79466 1.22128 9.681 1.14372C9.23266 0.837311 8.70779 0.675405 8.16319 0.675405C7.51307 0.675405 6.88529 0.91028 6.39551 1.33684C5.94751 1.72697 5.64214 2.25281 5.5247 2.82971C4.53717 3.22924 3.83833 4.19762 3.83833 5.32668C3.83833 5.57633 3.87276 5.82046 3.93936 6.05643C3.51255 6.12546 3.18555 6.49639 3.18555 6.94239C3.18555 7.43733 3.58823 7.84002 4.08317 7.84002H4.23314L6.6221 15.007C6.8201 15.601 7.37385 16.0001 8.00001 16.0001C8.62616 16.0001 9.17988 15.601 9.37791 15.007L11.7669 7.84002H11.9168C12.4118 7.84002 12.8144 7.43733 12.8144 6.94242C12.8145 6.5283 12.5326 6.17902 12.1508 6.07583ZM9.46885 4.10259C10.5926 4.10259 11.5262 4.95358 11.6559 6.04468H7.2817C7.41148 4.95358 8.34507 4.10259 9.46885 4.10259ZM11.9168 7.3503H5.38879V7.83989H11.2508L8.91341 14.852C8.78213 15.2458 8.41507 15.5103 8.00001 15.5103C7.58494 15.5103 7.21785 15.2458 7.0866 14.852L4.58604 7.3503H4.08323C3.85823 7.3503 3.67523 7.1673 3.67523 6.9423C3.67523 6.7173 3.85823 6.5343 4.08323 6.5343H11.9169C12.1419 6.5343 12.3249 6.7173 12.3249 6.9423C12.3249 7.16727 12.1418 7.3503 11.9168 7.3503Z"/>
      <path d="M6.82385 10.9936L6.35938 11.1484L7.30508 13.9858L7.76955 13.831L6.82385 10.9936Z"/>
    </g>
    <defs>
      <clipPath id="clip0_2450_845">
        <rect width="16" height="16" fill="white"/>
      </clipPath>
    </defs>
  </symbol>

  <symbol id="email" viewBox="0 0 16 16">
    <path d="M16 3H0V13.4067H16V3Z" fill="#F6C358"/>
    <path d="M8 7.27551L16 13.4066H0L8 7.27551Z" fill="#FCD462"/>
    <path d="M8 9.69788L0 3.00006H16L8 9.69788Z" fill="#DC8744"/>
    <path d="M8 9.13108L0 3.00006H16L8 9.13108Z" fill="#FCD462"/>
  </symbol>

  <symbol id="phone" viewBox="0 0 16 16">
    <path d="M9.63024 10.0808L9.35344 10.3722C9.35344 10.3722 8.69556 11.0649 6.89984 9.17429C5.10414 7.28374 5.76201 6.59111 5.76201 6.59111L5.93631 6.40762C6.36569 5.95558 6.40616 5.22983 6.03154 4.70001L5.26526 3.6162C4.80161 2.96044 3.90568 2.87382 3.37425 3.43331L2.42043 4.43751C2.15692 4.71493 1.98034 5.07456 2.00176 5.4735C2.05654 6.49412 2.49266 8.69002 4.92623 11.2522C7.50692 13.9691 9.92837 14.0771 10.9186 13.9794C11.2318 13.9485 11.5042 13.7796 11.7237 13.5485L12.5869 12.6396C13.1697 12.0262 13.0053 10.9744 12.2598 10.5453L11.0988 9.87702C10.6092 9.59523 10.0128 9.678 9.63024 10.0808Z" />
    <path d="M8.23452 2.38274C8.27475 2.13426 8.50963 1.96571 8.75811 2.00593C8.77348 2.00888 8.82301 2.01813 8.8489 2.0239C8.90079 2.03545 8.97311 2.05323 9.06329 2.0795C9.24365 2.13203 9.4956 2.21857 9.79798 2.3572C10.4034 2.63477 11.2091 3.12031 12.0451 3.95637C12.8812 4.79242 13.3667 5.5981 13.6443 6.20353C13.783 6.50592 13.8695 6.75787 13.922 6.93822C13.9482 7.02841 13.966 7.10074 13.9776 7.15259C13.9834 7.17852 13.9876 7.19934 13.9905 7.21472L13.9941 7.23368C14.0342 7.48213 13.8672 7.72679 13.6188 7.76702C13.371 7.80712 13.1376 7.63934 13.0964 7.39207C13.0951 7.38539 13.0916 7.36758 13.0879 7.35075C13.0803 7.31708 13.0674 7.26372 13.0469 7.19313C13.0057 7.05194 12.9343 6.84209 12.8157 6.58341C12.5788 6.06669 12.1528 5.35315 11.4006 4.60092C10.6484 3.84868 9.93483 3.4227 9.41812 3.18581C9.15942 3.06721 8.94959 2.99579 8.80836 2.95466C8.73781 2.9341 8.64909 2.91374 8.61542 2.90625C8.36809 2.86503 8.19442 2.63051 8.23452 2.38274Z" />
    <path fill-rule="evenodd" clip-rule="evenodd" d="M8.37189 4.47896C8.44105 4.23693 8.6933 4.09679 8.93534 4.16594L8.81016 4.60417C8.93534 4.16594 8.93534 4.16594 8.93534 4.16594L8.93625 4.16619L8.93716 4.16646L8.93917 4.16705L8.94391 4.16846L8.95594 4.1722C8.96506 4.17513 8.97654 4.17895 8.99015 4.18379C9.01744 4.19348 9.05354 4.20725 9.09778 4.22621C9.18632 4.26415 9.30725 4.32275 9.45589 4.41068C9.75329 4.58672 10.1593 4.87913 10.6364 5.35614C11.1134 5.83316 11.4058 6.23921 11.5818 6.53665C11.6698 6.68524 11.7283 6.80621 11.7663 6.89474C11.7853 6.93898 11.7991 6.97505 11.8087 7.00234C11.8136 7.01599 11.8174 7.02743 11.8203 7.03659L11.824 7.04862L11.8254 7.05333L11.826 7.05535L11.8263 7.05629C11.8263 7.05629 11.8266 7.05716 11.3883 7.18237L11.8266 7.05716C11.8958 7.29919 11.7556 7.55143 11.5136 7.62059C11.2736 7.68913 11.0235 7.55198 10.9519 7.31372L10.9496 7.30717C10.9464 7.29804 10.9397 7.28006 10.9285 7.25381C10.906 7.20134 10.8652 7.11552 10.7974 7.00091C10.6619 6.77197 10.4172 6.42605 9.9918 6.00069C9.56648 5.57534 9.22053 5.33063 8.99161 5.19513C8.877 5.1273 8.7912 5.08652 8.73869 5.06404C8.71244 5.05279 8.69445 5.04608 8.68534 5.04284L8.67877 5.0406C8.44056 4.96897 8.30335 4.71893 8.37189 4.47896Z" />
  </symbol>
</svg>